<?xml version="1.0" encoding="UTF-8" standalone="no"?>
<!-- Created with Inkscape (http://www.inkscape.org/) -->

<svg
   version="1.1"
   id="svg2"
   width="177"
   height="24"
   viewBox="3 3 177 24"
   sodipodi:docname="logo_text_horizontal_dark.svg"
   inkscape:version="1.4 (e7c3feb1, 2024-10-09)"
   inkscape:export-filename="C:\Users\s2086085\Documents\Personal\Sinkove\logo\circle_black_on_white.png"
   inkscape:export-xdpi="48"
   inkscape:export-ydpi="48"
   xmlns:inkscape="http://www.inkscape.org/namespaces/inkscape"
   xmlns:sodipodi="http://sodipodi.sourceforge.net/DTD/sodipodi-0.dtd"
   xmlns="http://www.w3.org/2000/svg"
   xmlns:svg="http://www.w3.org/2000/svg">
  <defs
     id="defs6">
    <linearGradient
       id="linearGradient3350"
       inkscape:swatch="solid">
      <stop
         style="stop-color:#000000;stop-opacity:1;"
         offset="0"
         id="stop3348" />
    </linearGradient>
  </defs>
  <sodipodi:namedview
     id="namedview4"
     pagecolor="#000000"
     bordercolor="#666666"
     borderopacity="0.40392157"
     inkscape:pageshadow="2"
     inkscape:pageopacity="0"
     inkscape:pagecheckerboard="true"
     showgrid="false"
     inkscape:zoom="3.4030943"
     inkscape:cx="97.117497"
     inkscape:cy="28.062696"
     inkscape:window-width="1920"
     inkscape:window-height="938"
     inkscape:window-x="0"
     inkscape:window-y="25"
     inkscape:window-maximized="0"
     inkscape:current-layer="g8"
     inkscape:snap-others="false"
     inkscape:showpageshadow="0"
     inkscape:deskcolor="#505050"
     showborder="true"
     borderlayer="false"
     inkscape:clip-to-page="false"
     inkscape:antialias-rendering="false"
     inkscape:lockguides="false" />
  <g
     inkscape:groupmode="layer"
     inkscape:label="Image"
     id="g8"
     transform="translate(22.763511,-11.859512)">
    <g
       id="g1"
       transform="translate(11.628076)"
       style="fill:#ffffff">
      <path
         id="path899-2"
         style="fill:#ffffff;fill-opacity:1;stroke:none;stroke-width:0.158983;stroke-linecap:square;stroke-linejoin:miter;stroke-miterlimit:4;stroke-dasharray:none;stroke-dashoffset:0;stroke-opacity:0.471374;paint-order:fill markers stroke"
         d="m 3.0629662,14.859669 c -0.00873,-2.4e-5 -0.01747,6.28e-4 -0.026078,6.28e-4 a 11.999951,12.002553 0 0 0 -3.35970938,0.48368 c -0.00582,0.0017 -0.011437,0.0035 -0.017052,0.0053 A 11.999951,12.002553 0 0 0 -1.6828461,15.85027 c -0.2171981,0.09548 -0.4303621,0.19893 -0.641695,0.306974 a 11.999951,12.002553 0 0 0 -0.6263064,0.342068 c -0.363293,0.212996 -0.715668,0.443749 -1.05594,0.69221 a 11.999951,12.002553 0 0 0 -0.339294,0.254027 c -0.280004,0.219161 -0.548694,0.45173 -0.809252,0.693454 a 11.999951,12.002553 0 0 0 -0.667775,0.667909 c -0.09111,0.09813 -0.183009,0.195489 -0.270895,0.296416 a 11.999951,12.002553 0 0 0 -2.855021,7.758562 11.999951,12.002553 0 0 0 11.9305121,11.997609 c 0.054611,-8.52e-4 0.099968,0 0.1550166,-0.0013 A 11.999951,12.002553 0 0 0 12.500648,34.212992 C 12.257559,34.134979 11.3578,34.1079 9.4173448,34.117576 l -2.2652545,0.01125 -0.1835702,0.107991 c -0.4608911,0.271001 -0.4175097,0.885509 0.079942,1.132024 0.147447,0.07306 1.7825685,0.09166 2.4038211,0.02733 0.30211,-0.03128 0.2854523,-0.0089 -0.2643854,0.354953 -1.9399559,1.283851 -3.9746607,1.895583 -6.3046751,1.895583 H 2.19644 L 2.0832656,37.525599 C 2.0118506,37.449119 1.9614192,37.342845 1.9465081,37.23741 1.9336141,37.14554 1.9279991,32.415464 1.9344461,26.726158 l 0.011646,-10.344177 0.1279815,-0.128023 c 0.1118434,-0.11186 0.1594256,-0.12983 0.3775389,-0.14293 0.4324207,-0.02597 2.7447167,0.143067 2.8503626,0.208376 0.014142,0.0088 0.2876357,0.08794 0.6076932,0.176004 1.6536928,0.454995 3.5342123,1.520729 4.4180617,2.503789 l 0.07576,0.08424 -1.8045292,1.61e-4 c -1.7304525,1.59e-4 -1.8097492,0.0033 -1.9339665,0.07911 -0.4061342,0.247669 -0.3823224,0.791349 0.04486,1.025272 0.1632523,0.08938 5.9807907,0.09383 6.3215407,0.0098 a 11.999951,12.002553 0 0 0 -2.88079,-3.010927 C 9.4762819,16.695512 8.761071,16.276938 8.0137917,15.937133 a 11.999951,12.002553 0 0 0 -0.029487,-0.01304 C 7.806971,15.844024 7.6278096,15.768439 7.447088,15.697159 A 11.999951,12.002553 0 0 0 7.380269,15.671389 C 7.2116517,15.606049 7.0416612,15.54471 6.8703818,15.487078 a 11.999951,12.002553 0 0 0 -0.096183,-0.03184 C 6.6115699,15.402053 6.4477562,15.352602 6.2829441,15.306409 A 11.999951,12.002553 0 0 0 6.165964,15.274029 C 6.0065384,15.23108 5.84599,15.191919 5.6847344,15.155554 A 11.999951,12.002553 0 0 0 5.553779,15.126125 c -0.1593426,-0.03406 -0.3197041,-0.06403 -0.480627,-0.09161 a 11.999951,12.002553 0 0 0 -0.1338045,-0.02322 c -0.1647289,-0.02632 -0.3303933,-0.04814 -0.496536,-0.06762 a 11.999951,12.002553 0 0 0 -0.1213268,-0.01497 c -0.1723816,-0.01845 -0.3456787,-0.03206 -0.5193501,-0.0431 a 11.999951,12.002553 0 0 0 -0.1064151,-0.0078 c -0.1801181,-0.0098 -0.3610476,-0.01426 -0.5423301,-0.01608 a 11.999951,12.002553 0 0 0 -0.090195,-0.0022 z m 1.3179753,4.179579 c -0.3868141,-0.0017 -0.75148,0.01204 -0.8673994,0.04425 -0.5509813,0.153098 -0.5674728,0.951766 -0.022899,1.109664 0.2634911,0.0764 1.8158843,0.04936 2.0013475,-0.03486 0.436372,-0.198129 0.4423404,-0.827549 0.00999,-1.044838 -0.08955,-0.045 -0.6236234,-0.07219 -1.1209912,-0.07422 z m 2.7424707,2.36148 c -1.9845851,0.0039 -3.7026221,0.02199 -3.7667377,0.05527 -0.3005713,0.156111 -0.3784955,0.512971 -0.1781424,0.81581 0.1879376,0.284047 -0.057482,0.274766 4.002403,0.271262 a 0.61290105,0.66647195 0 0 0 0.316772,-0.555644 0.61290105,0.66647195 0 0 0 -0.3742949,-0.586701 z m 2.3389985,0.0023 a 0.61290105,0.66647195 0 0 0 -0.3712378,0.584399 0.61290105,0.66647195 0 0 0 0.3170005,0.555803 c 1.0214176,0.0017 1.5763716,0.0073 1.9158116,0.01841 h 1.497532 l 0.293542,0.653857 -0.0033,0.0015 c 0.126109,0.292307 0.259706,0.62119 0.259706,0.661468 0,0.01969 -1.687945,0.03478 -3.8847161,0.03478 -3.6646684,0 -3.8921818,0.0041 -4.015671,0.0715 -0.3712586,0.202737 -0.3835076,0.772385 -0.021731,1.009514 0.1031298,0.06761 0.3423514,0.07288 4.1714369,0.09161 2.2341222,0.01093 4.0714682,0.02931 4.0829682,0.04084 0.04835,0.04839 0.147551,0.844856 0.136612,1.096853 l -0.01186,0.273436 -1.491626,0.0061 a 0.61290105,0.66647195 0 0 1 0.05124,0.01809 0.61290105,0.66647195 0 0 0 -0.44833,0.641359 0.61290105,0.66647195 0 0 0 0.290443,0.564265 l 1.558529,0.0025 -0.0037,0.319007 c -0.0071,0.602015 -0.07641,0.840414 -0.252657,0.868601 -0.06212,0.0099 -1.538418,0.01728 -3.342303,0.02143 a 0.61290105,0.66647195 0 0 0 -0.3191003,0.581811 0.61290105,0.66647195 0 0 0 0.3706343,0.608596 l 3.934087,-0.0042 0.198481,-0.104498 c 0.1222,-0.06434 0.214869,-0.13738 0.290984,-0.238579 a 11.999951,12.002553 0 0 0 0.385525,-2.919579 11.999951,12.002553 0 0 0 -0.4366,-3.194602 c -0.133285,-0.422465 -0.286305,-0.8288 -0.469377,-1.19949 -0.356783,-0.722437 -0.579721,-0.962343 -0.936089,-1.007495 -0.247894,-0.03141 -1.881477,-0.05053 -3.7462537,-0.05737 z m -5.6345716,2.490124 c -0.3529782,-0.01183 -0.709617,0.218493 -0.709617,0.64819 0,0.215734 0.1654776,0.464424 0.3867936,0.581266 0.4943108,0.260978 1.1312233,-0.226311 0.970238,-0.742285 C 4.3747024,24.058046 4.102373,23.902357 3.8278391,23.893153 Z m 8.1579309,2.611394 -0.06255,2.1e-4 v 0.0236 a 0.61290105,0.66647195 0 0 1 0.06255,-0.02383 z m -1.62281,0.0066 -0.04469,2.08e-4 a 0.61290105,0.66647195 0 0 1 0.04469,0.01701 z m -0.4417379,0.0019 -0.9610042,0.004 c -3.5846441,0.01464 -4.889289,0.03201 -4.9478103,0.06592 -0.3747731,0.21708 -0.3946544,0.787982 -0.035168,1.01021 0.1934067,0.119554 0.2515746,0.12097 5.2412896,0.128957 l 0.8417988,0.0013 a 0.61290105,0.66647195 0 0 0 0.286035,-0.56077 0.61290105,0.66647195 0 0 0 -0.4483302,-0.641358 0.61290105,0.66647195 0 0 1 0.023187,-0.0082 z M 7.9671453,28.9437 c -4.0760641,0.0017 -4.4424144,0.0057 -4.5964123,0.08036 -0.4125602,0.199752 -0.39062,0.814115 0.036624,1.027912 l 0.1678896,0.084 4.3270983,-0.0047 A 0.61290105,0.66647195 0 0 0 8.2776376,29.520141 0.61290105,0.66647195 0 0 0 7.9671466,28.943612 Z M 8.294232,30.11159 A 0.61290105,0.66647195 0 0 1 8.243322,30.131 l 0.05091,-7.9e-5 z m 1.560171,0 v 0.0177 l 0.046188,-7.9e-5 a 0.61290105,0.66647195 0 0 1 -0.046188,-0.01761 z m -0.6254534,1.242736 c -1.6525072,-0.0019 -3.1493117,0.01437 -3.2874418,0.05333 -0.6276164,0.177013 -0.5753339,0.954265 0.077613,1.154151 0.1664961,0.05097 7.4044332,0.04212 7.5579322,-0.0092 0.0023,-8.52e-4 0.004,-0.0023 0.0062,-0.003 a 11.999951,12.002553 0 0 0 0.447935,-0.875763 c -0.04455,-0.08928 -0.111905,-0.17137 -0.213142,-0.234076 -0.08258,-0.05115 -2.464568,-0.08309 -4.5891965,-0.0854 z m -5.2263164,0.0045 c -0.2581672,0.0034 -0.5158561,0.03665 -0.6238315,0.09783 -0.4010594,0.227213 -0.4134334,0.750264 -0.024,1.012774 0.1789746,0.120623 1.0454588,0.134208 1.2728264,0.01994 0.4257662,-0.21396 0.4265773,-0.823274 0.00207,-1.04926 -0.1096805,-0.0583 -0.3682429,-0.0847 -0.6263894,-0.08129 z"
         inkscape:export-filename="C:\Users\s2086085\Documents\Personal\Sinkove\logo\circle_black_on_transparent.png"
         inkscape:export-xdpi="54.613335"
         inkscape:export-ydpi="54.613335" />
      <text
         xml:space="preserve"
         style="font-size:27.027px;font-family:Proxima;-inkscape-font-specification:Proxima;text-align:start;writing-mode:lr-tb;direction:ltr;text-anchor:start;fill:#ffffff;stroke-width:0.202701"
         x="23.138895"
         y="36.589233"
         id="text1"><tspan
           sodipodi:role="line"
           id="tspan1"
           x="23.138895"
           y="36.589233"
           style="font-style:normal;font-variant:normal;font-weight:bold;font-stretch:normal;font-size:27.027px;font-family:Raleway;-inkscape-font-specification:'Raleway Bold';stroke-width:0.202701;fill:#ffffff">Sinkove</tspan></text>
    </g>
  </g>
</svg>
